<mxfile host="app.diagrams.net" modified="2022-11-28T07:01:38.572Z" agent="5.0 (Windows NT 10.0; Win64; x64) AppleWebKit/537.36 (KHTML, like Gecko) Chrome/107.0.0.0 Safari/537.36" version="20.6.0" etag="yt20olr8YZP1PGfmZDby" type="github">
  <diagram id="J6CUQ6Zd6wHY1RuXkqr0" name="第 1 页">
    <mxGraphModel dx="870" dy="594" grid="1" gridSize="10" guides="1" tooltips="1" connect="1" arrows="1" fold="1" page="1" pageScale="1" pageWidth="827" pageHeight="1169" math="0" shadow="0">
      <root>
        <mxCell id="0" />
        <mxCell id="1" parent="0" />
        <mxCell id="9UtF8d29-u4skydW_kOp-44" value="" style="endArrow=classic;html=1;rounded=0;exitX=1.008;exitY=0.273;exitDx=0;exitDy=0;exitPerimeter=0;entryX=0;entryY=0.25;entryDx=0;entryDy=0;" edge="1" parent="1" source="9UtF8d29-u4skydW_kOp-5" target="9UtF8d29-u4skydW_kOp-6">
          <mxGeometry width="50" height="50" relative="1" as="geometry">
            <mxPoint x="380" y="330" as="sourcePoint" />
            <mxPoint x="430" y="280" as="targetPoint" />
          </mxGeometry>
        </mxCell>
        <mxCell id="9UtF8d29-u4skydW_kOp-5" value="" style="rounded=0;whiteSpace=wrap;html=1;" vertex="1" parent="1">
          <mxGeometry x="40" y="120" width="300" height="210" as="geometry" />
        </mxCell>
        <mxCell id="9UtF8d29-u4skydW_kOp-6" value="" style="rounded=0;whiteSpace=wrap;html=1;" vertex="1" parent="1">
          <mxGeometry x="480" y="140" width="380" height="210" as="geometry" />
        </mxCell>
        <mxCell id="9UtF8d29-u4skydW_kOp-7" value="文件系统服务" style="text;html=1;strokeColor=none;fillColor=none;align=center;verticalAlign=middle;whiteSpace=wrap;rounded=0;" vertex="1" parent="1">
          <mxGeometry x="470" y="110" width="100" height="30" as="geometry" />
        </mxCell>
        <mxCell id="9UtF8d29-u4skydW_kOp-8" value="用户进程" style="text;html=1;strokeColor=none;fillColor=none;align=center;verticalAlign=middle;whiteSpace=wrap;rounded=0;" vertex="1" parent="1">
          <mxGeometry x="40" y="90" width="60" height="30" as="geometry" />
        </mxCell>
        <mxCell id="9UtF8d29-u4skydW_kOp-13" style="edgeStyle=orthogonalEdgeStyle;rounded=0;orthogonalLoop=1;jettySize=auto;html=1;exitX=1;exitY=0.5;exitDx=0;exitDy=0;entryX=0;entryY=0.5;entryDx=0;entryDy=0;" edge="1" parent="1" source="9UtF8d29-u4skydW_kOp-9" target="9UtF8d29-u4skydW_kOp-12">
          <mxGeometry relative="1" as="geometry" />
        </mxCell>
        <mxCell id="9UtF8d29-u4skydW_kOp-9" value="n" style="rounded=0;whiteSpace=wrap;html=1;" vertex="1" parent="1">
          <mxGeometry x="119" y="232.5" width="20" height="20" as="geometry" />
        </mxCell>
        <mxCell id="9UtF8d29-u4skydW_kOp-10" value="描述符编号映射" style="text;html=1;strokeColor=none;fillColor=none;align=center;verticalAlign=middle;whiteSpace=wrap;rounded=0;" vertex="1" parent="1">
          <mxGeometry x="89" y="192.5" width="90" height="30" as="geometry" />
        </mxCell>
        <mxCell id="9UtF8d29-u4skydW_kOp-12" value="描述符结构" style="rounded=0;whiteSpace=wrap;html=1;" vertex="1" parent="1">
          <mxGeometry x="169" y="232.5" width="70" height="20" as="geometry" />
        </mxCell>
        <mxCell id="9UtF8d29-u4skydW_kOp-14" value="&lt;b&gt;①open(path)&lt;/b&gt;" style="text;html=1;strokeColor=none;fillColor=none;align=center;verticalAlign=middle;whiteSpace=wrap;rounded=0;" vertex="1" parent="1">
          <mxGeometry x="58.5" y="150" width="105" height="30" as="geometry" />
        </mxCell>
        <mxCell id="9UtF8d29-u4skydW_kOp-16" value="open&lt;br&gt;描述符编号&lt;br&gt;剩余路径" style="shape=note;whiteSpace=wrap;html=1;backgroundOutline=1;darkOpacity=0.05;size=15;" vertex="1" parent="1">
          <mxGeometry x="378" y="162.5" width="72" height="60" as="geometry" />
        </mxCell>
        <mxCell id="9UtF8d29-u4skydW_kOp-18" value="" style="rounded=0;whiteSpace=wrap;html=1;" vertex="1" parent="1">
          <mxGeometry x="123" y="430.32000000000005" width="180" height="155" as="geometry" />
        </mxCell>
        <mxCell id="9UtF8d29-u4skydW_kOp-19" value="挂载点服务" style="text;html=1;strokeColor=none;fillColor=none;align=center;verticalAlign=middle;whiteSpace=wrap;rounded=0;" vertex="1" parent="1">
          <mxGeometry x="308" y="430.32000000000005" width="70" height="30" as="geometry" />
        </mxCell>
        <mxCell id="9UtF8d29-u4skydW_kOp-36" style="edgeStyle=orthogonalEdgeStyle;rounded=0;orthogonalLoop=1;jettySize=auto;html=1;exitX=0.5;exitY=1;exitDx=0;exitDy=0;entryX=0.5;entryY=0;entryDx=0;entryDy=0;" edge="1" parent="1" source="9UtF8d29-u4skydW_kOp-32" target="9UtF8d29-u4skydW_kOp-33">
          <mxGeometry relative="1" as="geometry">
            <Array as="points">
              <mxPoint x="213" y="515.32" />
              <mxPoint x="193" y="515.32" />
            </Array>
          </mxGeometry>
        </mxCell>
        <mxCell id="9UtF8d29-u4skydW_kOp-37" style="edgeStyle=orthogonalEdgeStyle;rounded=0;orthogonalLoop=1;jettySize=auto;html=1;exitX=0.5;exitY=1;exitDx=0;exitDy=0;entryX=0.5;entryY=0;entryDx=0;entryDy=0;" edge="1" parent="1" source="9UtF8d29-u4skydW_kOp-32" target="9UtF8d29-u4skydW_kOp-34">
          <mxGeometry relative="1" as="geometry">
            <Array as="points">
              <mxPoint x="213" y="515.32" />
              <mxPoint x="233" y="515.32" />
            </Array>
          </mxGeometry>
        </mxCell>
        <mxCell id="9UtF8d29-u4skydW_kOp-32" value="" style="rounded=0;whiteSpace=wrap;html=1;" vertex="1" parent="1">
          <mxGeometry x="203" y="480.32000000000005" width="20" height="20" as="geometry" />
        </mxCell>
        <mxCell id="9UtF8d29-u4skydW_kOp-33" value="" style="rounded=0;whiteSpace=wrap;html=1;" vertex="1" parent="1">
          <mxGeometry x="183" y="535.32" width="20" height="20" as="geometry" />
        </mxCell>
        <mxCell id="9UtF8d29-u4skydW_kOp-34" value="" style="rounded=0;whiteSpace=wrap;html=1;" vertex="1" parent="1">
          <mxGeometry x="223" y="535.32" width="20" height="20" as="geometry" />
        </mxCell>
        <mxCell id="9UtF8d29-u4skydW_kOp-38" value="挂载点信息" style="text;html=1;strokeColor=none;fillColor=none;align=center;verticalAlign=middle;whiteSpace=wrap;rounded=0;" vertex="1" parent="1">
          <mxGeometry x="173" y="450.32000000000005" width="80" height="30" as="geometry" />
        </mxCell>
        <mxCell id="9UtF8d29-u4skydW_kOp-39" value="" style="endArrow=classic;html=1;rounded=0;exitX=0.131;exitY=0.999;exitDx=0;exitDy=0;exitPerimeter=0;" edge="1" parent="1">
          <mxGeometry width="50" height="50" relative="1" as="geometry">
            <mxPoint x="162.29999999999995" y="330.00000000000006" as="sourcePoint" />
            <mxPoint x="162" y="430.32000000000005" as="targetPoint" />
          </mxGeometry>
        </mxCell>
        <mxCell id="9UtF8d29-u4skydW_kOp-40" value="&lt;b&gt;②路径解析请求：path&lt;/b&gt;" style="text;html=1;strokeColor=none;fillColor=none;align=center;verticalAlign=middle;whiteSpace=wrap;rounded=0;" vertex="1" parent="1">
          <mxGeometry x="28" y="360.32" width="135" height="30" as="geometry" />
        </mxCell>
        <mxCell id="9UtF8d29-u4skydW_kOp-41" value="" style="endArrow=classic;html=1;rounded=0;exitX=0.668;exitY=-0.01;exitDx=0;exitDy=0;exitPerimeter=0;entryX=0.399;entryY=0.999;entryDx=0;entryDy=0;entryPerimeter=0;" edge="1" parent="1" source="9UtF8d29-u4skydW_kOp-18">
          <mxGeometry width="50" height="50" relative="1" as="geometry">
            <mxPoint x="238.29999999999995" y="340.00000000000006" as="sourcePoint" />
            <mxPoint x="242.70000000000005" y="330.00000000000006" as="targetPoint" />
          </mxGeometry>
        </mxCell>
        <mxCell id="9UtF8d29-u4skydW_kOp-42" value="&lt;b&gt;③返回(文件系统服务地址，剩余路径)&lt;/b&gt;" style="text;html=1;strokeColor=none;fillColor=none;align=center;verticalAlign=middle;whiteSpace=wrap;rounded=0;" vertex="1" parent="1">
          <mxGeometry x="238" y="360.32" width="140" height="30" as="geometry" />
        </mxCell>
        <mxCell id="9UtF8d29-u4skydW_kOp-43" value="&lt;b&gt;④在本地分配一个描述符编号&lt;/b&gt;" style="text;html=1;strokeColor=none;fillColor=none;align=center;verticalAlign=middle;whiteSpace=wrap;rounded=0;" vertex="1" parent="1">
          <mxGeometry x="72" y="260" width="167" height="30" as="geometry" />
        </mxCell>
        <mxCell id="9UtF8d29-u4skydW_kOp-48" style="edgeStyle=orthogonalEdgeStyle;rounded=0;orthogonalLoop=1;jettySize=auto;html=1;exitX=0.5;exitY=1;exitDx=0;exitDy=0;entryX=0;entryY=0.5;entryDx=0;entryDy=0;" edge="1" parent="1" source="9UtF8d29-u4skydW_kOp-45" target="9UtF8d29-u4skydW_kOp-46">
          <mxGeometry relative="1" as="geometry">
            <Array as="points">
              <mxPoint x="540" y="252" />
              <mxPoint x="560" y="252" />
            </Array>
          </mxGeometry>
        </mxCell>
        <mxCell id="9UtF8d29-u4skydW_kOp-55" style="edgeStyle=orthogonalEdgeStyle;rounded=0;orthogonalLoop=1;jettySize=auto;html=1;exitX=0.5;exitY=1;exitDx=0;exitDy=0;entryX=0;entryY=0.5;entryDx=0;entryDy=0;dashed=1;" edge="1" parent="1" source="9UtF8d29-u4skydW_kOp-45" target="9UtF8d29-u4skydW_kOp-52">
          <mxGeometry relative="1" as="geometry" />
        </mxCell>
        <mxCell id="9UtF8d29-u4skydW_kOp-45" value="进程号" style="rounded=0;whiteSpace=wrap;html=1;" vertex="1" parent="1">
          <mxGeometry x="520" y="220" width="40" height="15" as="geometry" />
        </mxCell>
        <mxCell id="9UtF8d29-u4skydW_kOp-50" style="edgeStyle=orthogonalEdgeStyle;rounded=0;orthogonalLoop=1;jettySize=auto;html=1;exitX=1;exitY=0.5;exitDx=0;exitDy=0;entryX=0;entryY=0.5;entryDx=0;entryDy=0;" edge="1" parent="1" source="9UtF8d29-u4skydW_kOp-46" target="9UtF8d29-u4skydW_kOp-47">
          <mxGeometry relative="1" as="geometry" />
        </mxCell>
        <mxCell id="9UtF8d29-u4skydW_kOp-46" value="描述符编号" style="rounded=0;whiteSpace=wrap;html=1;" vertex="1" parent="1">
          <mxGeometry x="560" y="245" width="70" height="15" as="geometry" />
        </mxCell>
        <mxCell id="9UtF8d29-u4skydW_kOp-47" value="服务端描述符结构体" style="rounded=0;whiteSpace=wrap;html=1;" vertex="1" parent="1">
          <mxGeometry x="650" y="245" width="120" height="15" as="geometry" />
        </mxCell>
        <mxCell id="9UtF8d29-u4skydW_kOp-51" style="edgeStyle=orthogonalEdgeStyle;rounded=0;orthogonalLoop=1;jettySize=auto;html=1;exitX=1;exitY=0.5;exitDx=0;exitDy=0;entryX=0;entryY=0.5;entryDx=0;entryDy=0;dashed=1;" edge="1" parent="1" source="9UtF8d29-u4skydW_kOp-52" target="9UtF8d29-u4skydW_kOp-53">
          <mxGeometry relative="1" as="geometry" />
        </mxCell>
        <mxCell id="9UtF8d29-u4skydW_kOp-52" value="描述符编号" style="rounded=0;whiteSpace=wrap;html=1;" vertex="1" parent="1">
          <mxGeometry x="560" y="270" width="70" height="15" as="geometry" />
        </mxCell>
        <mxCell id="9UtF8d29-u4skydW_kOp-53" value="服务端描述符结构体" style="rounded=0;whiteSpace=wrap;html=1;" vertex="1" parent="1">
          <mxGeometry x="650" y="270" width="120" height="15" as="geometry" />
        </mxCell>
        <mxCell id="9UtF8d29-u4skydW_kOp-56" value="&lt;b&gt;⑥若打开成功，创建新的“服务端描述符结构体”&lt;/b&gt;" style="text;html=1;strokeColor=none;fillColor=none;align=center;verticalAlign=middle;whiteSpace=wrap;rounded=0;" vertex="1" parent="1">
          <mxGeometry x="510" y="290" width="260" height="30" as="geometry" />
        </mxCell>
        <mxCell id="9UtF8d29-u4skydW_kOp-57" value="&lt;b&gt;⑤通过“剩余路径”打开文件，更新虚拟文件系统&lt;/b&gt;" style="text;html=1;strokeColor=none;fillColor=none;align=center;verticalAlign=middle;whiteSpace=wrap;rounded=0;" vertex="1" parent="1">
          <mxGeometry x="510" y="170" width="260" height="30" as="geometry" />
        </mxCell>
        <mxCell id="9UtF8d29-u4skydW_kOp-58" value="" style="endArrow=classic;html=1;rounded=0;exitX=0;exitY=0.5;exitDx=0;exitDy=0;entryX=1.007;entryY=0.692;entryDx=0;entryDy=0;entryPerimeter=0;" edge="1" parent="1" source="9UtF8d29-u4skydW_kOp-6" target="9UtF8d29-u4skydW_kOp-5">
          <mxGeometry width="50" height="50" relative="1" as="geometry">
            <mxPoint x="380" y="370" as="sourcePoint" />
            <mxPoint x="350" y="340" as="targetPoint" />
          </mxGeometry>
        </mxCell>
        <mxCell id="9UtF8d29-u4skydW_kOp-59" value="&lt;b&gt;⑦返回结果&lt;/b&gt;" style="text;html=1;strokeColor=none;fillColor=none;align=center;verticalAlign=middle;whiteSpace=wrap;rounded=0;" vertex="1" parent="1">
          <mxGeometry x="378" y="255" width="92" height="30" as="geometry" />
        </mxCell>
      </root>
    </mxGraphModel>
  </diagram>
</mxfile>
